# Blender v3.0.1 OBJ File: 'Table_Chair_Nadika.blend1111'
# www.blender.org
mtllib Table_Chair_Nadika.mtl
o Table_leg_Cube.024
v -7.351481 -6.873530 9.651261
v -7.351481 -6.873530 10.273107
v -7.351481 -1.513000 9.651261
v -6.950374 -6.873530 9.651261
v -6.950374 -6.873530 10.273107
v -6.950374 -1.513000 9.651261
v -6.950374 -1.513000 10.273107
v -7.351481 -1.513000 10.273107
v 0.046236 -6.873530 9.651261
v 0.046236 -6.873530 10.273107
v 0.046236 -1.513000 9.651261
v 0.447343 -6.873530 9.651261
v 0.447343 -6.873530 10.273107
v 0.447343 -1.513000 9.651261
v 0.447343 -1.513000 10.273107
v 0.046236 -1.513000 10.273107
v -7.351481 -6.873530 14.211465
v -7.351481 -6.873530 14.833311
v -7.351481 -1.513000 14.211465
v -6.950374 -6.873530 14.211465
v -6.950374 -6.873530 14.833311
v -6.950374 -1.513000 14.211465
v -6.950374 -1.513000 14.833311
v -7.351481 -1.513000 14.833311
v 0.046236 -6.873530 14.211465
v 0.046236 -6.873530 14.833311
v 0.046236 -1.513000 14.211465
v 0.447343 -6.873530 14.211465
v 0.447343 -6.873530 14.833311
v 0.447343 -1.513000 14.211465
v 0.447343 -1.513000 14.833311
v 0.046236 -1.513000 14.833311
v 0.678799 -1.146949 15.036339
v 0.678799 -1.545398 15.036339
v 0.678799 -1.146949 9.336338
v -7.721201 -1.146949 15.036339
v -7.721201 -1.545398 15.036339
v -7.721201 -1.146949 9.336338
v -7.721201 -1.545398 9.336338
v 0.678799 -1.545398 9.336338
v 0.454851 -1.696802 14.880035
v 0.454851 -1.479832 14.880035
v 0.454851 -1.696802 9.697987
v 0.454851 -1.479832 9.697987
v -7.343975 -1.696802 14.880035
v -7.343975 -1.479832 14.880035
v -7.343975 -1.696802 9.697987
v -7.343975 -1.479832 9.697987
vt 0.175596 0.175595
vt 0.350997 0.175595
vt 0.350997 0.350997
vt 0.175596 0.350997
vt 0.350997 0.526398
vt 0.175595 0.526398
vt 0.526398 0.350997
vt 0.526398 0.526398
vt 0.175596 0.000194
vt 0.350997 0.000194
vt 0.350997 0.701799
vt 0.175595 0.701799
vt 0.000194 0.350997
vt 0.000194 0.526398
vt 0.842133 0.315540
vt 0.999806 0.315540
vt 0.999806 0.473213
vt 0.842133 0.473213
vt 0.684460 0.473213
vt 0.842133 0.630886
vt 0.684460 0.630886
vt 0.684460 0.000194
vt 0.842133 0.000194
vt 0.842133 0.157867
vt 0.684460 0.157867
vt 0.526786 0.315540
vt 0.684460 0.315540
vt 0.526786 0.473213
vt 0.005936 0.885928
vt 0.051871 0.839993
vt 0.077710 0.885928
vt 0.031775 0.931863
vt 0.000194 0.748123
vt 0.046129 0.702188
vt 0.071968 0.748123
vt 0.026033 0.794058
vt 0.123645 0.839993
vt 0.149483 0.885928
vt 0.103548 0.931863
vt 0.097806 0.794058
vt 0.143741 0.748123
vt 0.169580 0.794058
vt 0.195807 0.748123
vt 0.241742 0.794058
vt 0.215903 0.839993
vt 0.169968 0.794058
vt 0.293419 0.702188
vt 0.339354 0.748123
vt 0.313515 0.794058
vt 0.267580 0.748123
vt 0.261838 0.885928
vt 0.236000 0.931863
vt 0.190065 0.885928
vt 0.287677 0.839993
vt 0.333612 0.885928
vt 0.307773 0.931863
vt 0.722399 0.677210
vt 0.768334 0.723145
vt 0.742495 0.769080
vt 0.696560 0.723145
vt 0.820011 0.631275
vt 0.865946 0.677210
vt 0.840107 0.723145
vt 0.794172 0.677210
vt 0.788430 0.815015
vt 0.762592 0.860950
vt 0.716657 0.815015
vt 0.814269 0.769080
vt 0.860204 0.815015
vt 0.834365 0.860950
vt 0.532528 0.815015
vt 0.578463 0.769080
vt 0.604302 0.815015
vt 0.558367 0.860950
vt 0.526786 0.677210
vt 0.572721 0.631275
vt 0.598560 0.677210
vt 0.552625 0.723145
vt 0.650237 0.769080
vt 0.676075 0.815015
vt 0.630140 0.860950
vt 0.624398 0.723145
vt 0.670333 0.677210
vt 0.696172 0.723145
vn 0.0000 0.0000 -1.0000
vn -1.0000 0.0000 0.0000
vn 0.0000 -1.0000 0.0000
vn 1.0000 0.0000 0.0000
vn 0.0000 0.0000 1.0000
vn 0.0000 1.0000 0.0000
usemtl Material
s off
f 37/1/1 36/2/1 33/3/1 34/4/1
f 34/4/2 33/3/2 35/5/2 40/6/2
f 33/3/3 36/7/3 38/8/3 35/5/3
f 39/9/4 38/10/4 36/2/4 37/1/4
f 40/6/5 35/5/5 38/11/5 39/12/5
f 37/13/6 34/4/6 40/6/6 39/14/6
f 41/15/3 45/16/3 47/17/3 43/18/3
f 44/19/1 43/18/1 47/20/1 48/21/1
f 48/22/2 47/23/2 45/24/2 46/25/2
f 46/26/6 42/27/6 44/19/6 48/28/6
f 42/27/4 41/15/4 43/18/4 44/19/4
f 46/25/5 45/24/5 41/15/5 42/27/5
usemtl Material.003
f 10/29/6 13/30/6 12/31/6 9/32/6
f 9/33/4 11/34/4 16/35/4 10/36/4
f 12/31/5 14/37/5 11/38/5 9/39/5
f 13/30/2 15/40/2 14/37/2 12/31/2
f 15/40/3 16/41/3 11/42/3 14/37/3
f 10/36/1 16/35/1 15/40/1 13/30/1
usemtl Material.004
f 2/43/6 5/44/6 4/45/6 1/46/6
f 1/47/4 3/48/4 8/49/4 2/50/4
f 4/45/5 6/51/5 3/52/5 1/53/5
f 5/44/2 7/54/2 6/51/2 4/45/2
f 7/54/3 8/55/3 3/56/3 6/51/3
f 2/50/1 8/49/1 7/54/1 5/44/1
usemtl Material.007
f 18/57/6 21/58/6 20/59/6 17/60/6
f 17/61/4 19/62/4 24/63/4 18/64/4
f 20/59/5 22/65/5 19/66/5 17/67/5
f 21/58/2 23/68/2 22/65/2 20/59/2
f 23/68/3 24/69/3 19/70/3 22/65/3
f 18/64/1 24/63/1 23/68/1 21/58/1
usemtl Material.008
f 26/71/6 29/72/6 28/73/6 25/74/6
f 25/75/4 27/76/4 32/77/4 26/78/4
f 28/73/5 30/79/5 27/80/5 25/81/5
f 29/72/2 31/82/2 30/79/2 28/73/2
f 31/82/3 32/83/3 27/84/3 30/79/3
f 26/78/1 32/77/1 31/82/1 29/72/1
