# Blender v3.2.0 OBJ File: 'window_final.blend'
# www.blender.org
mtllib window_final.mtl
o Vidro_Cube.032
v -15.748333 7.182908 -7.125057
v -15.748333 7.182907 -0.137025
v -15.748333 2.569640 -0.137026
v -15.748333 2.569641 -7.125058
v -16.166817 7.182907 -0.137025
v -16.166817 7.182908 -7.125061
v -16.166817 2.569641 -7.125062
v -16.166817 2.569640 -0.137026
v -16.464117 2.343578 0.168000
v -16.464117 7.408968 0.168000
v -16.464117 7.266732 -0.008979
v -16.464117 2.485814 -0.008980
v -15.451039 7.408968 0.168000
v -15.451039 7.408969 -7.430084
v -16.464117 7.408969 -7.430084
v -15.451039 2.343578 0.168000
v -16.464117 2.343579 -7.430086
v -15.451039 2.343579 -7.430086
v -16.464117 2.485815 -7.253101
v -15.451039 7.266732 -0.008979
v -15.451039 7.266733 -7.253099
v -15.451039 2.485815 -7.253101
v -15.451039 2.485814 -0.008980
v -16.464117 7.266733 -7.253099
v -15.383173 7.266732 -0.008979
v -15.383173 7.266733 -7.253099
v -15.383173 2.485815 -7.253101
v -15.383173 2.485814 -0.008980
v -16.531984 7.266733 -7.253099
v -16.531984 7.266732 -0.008979
v -16.531984 2.485815 -7.253101
v -16.531984 2.485814 -0.008980
v -16.531984 7.145978 -0.175469
v -16.531984 2.606568 -0.175469
v -15.383173 7.145978 -0.175469
v -15.383173 7.145979 -7.086611
v -15.383173 2.606569 -7.086612
v -15.383173 2.606568 -0.175469
v -16.531984 7.145979 -7.086611
v -16.531984 2.606569 -7.086612
vt 0.171301 0.746559
vt 0.171301 0.746559
vt 0.171301 0.746559
vt 0.171301 0.746559
vt 0.653144 0.023236
vt 0.653144 0.568298
vt 0.546455 0.568298
vt 0.546455 0.023236
vt 0.238373 0.345942
vt 0.023236 0.345942
vt 0.029277 0.338425
vt 0.232332 0.338425
vt 0.789117 0.023236
vt 0.832144 0.023236
vt 0.832144 0.345941
vt 0.789117 0.345941
vt 0.699617 0.345941
vt 0.742644 0.345941
vt 0.742644 0.561077
vt 0.699617 0.561077
vt 0.699617 0.023236
vt 0.742644 0.023236
vt 0.238373 0.023236
vt 0.232332 0.030753
vt 0.699617 0.607550
vt 0.742644 0.607550
vt 0.742644 0.822686
vt 0.699617 0.822686
vt 0.284846 0.345941
vt 0.284846 0.023236
vt 0.290887 0.030753
vt 0.290887 0.338424
vt 0.499983 0.023236
vt 0.499983 0.345941
vt 0.493941 0.338424
vt 0.493941 0.030753
vt 0.023236 0.023236
vt 0.029277 0.030753
vt 0.891898 0.746556
vt 0.891898 0.961692
vt 0.884381 0.955651
vt 0.884381 0.752597
vt 0.933737 0.700083
vt 0.933737 0.392414
vt 0.936619 0.392414
vt 0.936619 0.700083
vt 0.644602 0.614770
vt 0.644602 0.922440
vt 0.641720 0.922440
vt 0.641720 0.614770
vt 0.976764 0.023236
vt 0.976764 0.330906
vt 0.973881 0.330906
vt 0.973881 0.023236
vt 0.026119 0.746559
vt 0.026119 0.949612
vt 0.023236 0.949612
vt 0.023236 0.746559
vt 0.121946 0.949611
vt 0.121946 0.746559
vt 0.124829 0.746559
vt 0.124829 0.949611
vt 0.075474 0.746559
vt 0.075474 0.949612
vt 0.072591 0.949612
vt 0.072591 0.746559
vt 0.884381 0.700083
vt 0.884381 0.392414
vt 0.887264 0.392414
vt 0.887264 0.700083
vt 0.938371 0.949609
vt 0.938371 0.746556
vt 0.941253 0.746556
vt 0.941253 0.949609
vt 0.272764 0.392414
vt 0.475818 0.392414
vt 0.470690 0.399485
vt 0.277892 0.399485
vt 0.226291 0.392414
vt 0.226291 0.700086
vt 0.221162 0.693015
vt 0.221163 0.399485
vt 0.023236 0.700086
vt 0.023236 0.392414
vt 0.028365 0.399485
vt 0.028365 0.693015
vt 0.475818 0.700086
vt 0.470690 0.693015
vt 0.272764 0.700086
vt 0.277892 0.693015
vt 0.878617 0.023236
vt 0.927409 0.023236
vt 0.927409 0.216033
vt 0.878617 0.216033
vt 0.789117 0.685943
vt 0.789117 0.392414
vt 0.837909 0.392414
vt 0.837909 0.685943
vt 0.837909 0.732415
vt 0.837909 0.925213
vt 0.789117 0.925213
vt 0.789117 0.732415
vt 0.595247 0.614770
vt 0.595247 0.908299
vt 0.546455 0.908299
vt 0.546455 0.614770
vn 1.0000 0.0000 0.0000
vn -1.0000 0.0000 0.0000
vn 0.0000 1.0000 0.0000
vn 0.0000 -0.0000 1.0000
vn 0.0000 -1.0000 -0.0000
vn 0.0000 0.0000 -1.0000
usemtl VidroMaterial
s off
f 1/1/1 2/2/1 3/3/1 4/4/1
f 5/5/2 6/6/2 7/7/2 8/8/2
usemtl VidroMaterial.003
f 9/9/2 10/10/2 11/11/2 12/12/2
f 10/13/3 13/14/3 14/15/3 15/16/3
f 9/17/4 16/18/4 13/19/4 10/20/4
f 17/21/5 18/22/5 16/18/5 9/17/5
f 17/23/2 9/9/2 12/12/2 19/24/2
f 15/25/6 14/26/6 18/27/6 17/28/6
f 14/29/1 13/30/1 20/31/1 21/32/1
f 16/33/1 18/34/1 22/35/1 23/36/1
f 10/10/2 15/37/2 24/38/2 11/11/2
f 18/34/1 14/29/1 21/32/1 22/35/1
f 15/37/2 17/23/2 19/24/2 24/38/2
f 13/39/1 16/40/1 23/41/1 20/42/1
f 21/43/3 20/44/3 25/45/3 26/46/3
f 23/47/5 22/48/5 27/49/5 28/50/5
f 11/51/3 24/52/3 29/53/3 30/54/3
f 24/55/6 19/56/6 31/57/6 29/58/6
f 22/59/6 21/60/6 26/61/6 27/62/6
f 20/63/4 23/64/4 28/65/4 25/66/4
f 19/67/5 12/68/5 32/69/5 31/70/5
f 12/71/4 11/72/4 30/73/4 32/74/4
f 32/75/2 30/76/2 33/77/2 34/78/2
f 26/79/1 25/80/1 35/81/1 36/82/1
f 28/83/1 27/84/1 37/85/1 38/86/1
f 30/76/2 29/87/2 39/88/2 33/77/2
f 29/87/2 31/89/2 40/90/2 39/88/2
f 27/84/1 26/79/1 36/82/1 37/85/1
f 25/80/1 28/83/1 38/86/1 35/81/1
f 31/89/2 32/75/2 34/78/2 40/90/2
f 33/91/6 35/92/6 38/93/6 34/94/6
f 40/95/3 34/96/3 38/97/3 37/98/3
f 39/99/4 40/100/4 37/101/4 36/102/4
f 33/103/5 39/104/5 36/105/5 35/106/5
